#!OML:ASF F:\VICON\USERDATA\INSTALL\rory3\rory3.ASF
:FULLY-SPECIFIED
:DEGREES
2647
root -1.33352 14.2328 3.95638 -366.854 -33.8588 370.879
lowerback 18.1819 -0.506703 -7.17088
upperback -1.55991 -2.17355 0.862862
thorax -11.708 -0.524209 5.65301
lowerneck -12.1617 -4.21465 -3.44032
upperneck 18.8531 -5.11458 -0.388773
head 7.91245 -2.74394 -0.0954701
rclavicle -2.78299e-015 -1.43125e-014
rhumerus -21.2074 21.3768 -98.1331
rradius 40.3344
rwrist -80.8966
rhand -18.8855 9.22792
rfingers 7.12502
rthumb 7.41563 -20.6221
lclavicle -2.78299e-015 -1.43125e-014
lhumerus 0.0640948 29.0191 48.9044
lradius 66.5802
lwrist 45.1918
lhand 0.668217 18.0648
lfingers 7.12502
lthumb 26.2303 46.272
rfemur -32.7088 13.4755 17.8964
rtibia 72.6428
rfoot -32.9882 -4.99077
rtoes 8.14072
lfemur -16.1498 -5.94743 0.833396
ltibia 25.692
lfoot -7.35678 23.563
ltoes 2.14855
2648
root -1.27209 14.2289 3.97702 -366.679 -33.8762 370.543
lowerback 18.5496 -0.560713 -7.1999
upperback -1.71374 -2.24766 1.18842
thorax -12.0729 -0.519165 6.07834
lowerneck -11.6834 -4.10696 -3.45102
upperneck 18.5415 -4.88952 -0.861523
head 7.70886 -2.68344 -0.209466
rclavicle -1.30204e-014 -6.36111e-015
rhumerus -21.8627 23.3267 -97.9667
rradius 41.4911
rwrist -81.8709
rhand -19.1847 9.15535
rfingers 7.12502
rthumb 7.12688 -20.7047
lclavicle -1.30204e-014 -6.36111e-015
lhumerus -0.42499 28.5252 48.8596
lradius 67.2357
lwrist 44.4852
lhand 0.936738 18.4279
lfingers 7.12502
lthumb 26.4873 46.5967
rfemur -32.7933 13.219 17.89
rtibia 72.6922
rfoot -32.8646 -5.3576
rtoes 5.23474
lfemur -17.1212 -4.02762 0.90596
ltibia 27.0233
lfoot -4.11868 22.3768
ltoes -8.23145
2649
root -1.20766 14.2152 4.01 -366.855 -34.1198 370.567
lowerback 18.705 -0.389465 -7.24302
upperback -1.62788 -2.03991 1.18108
thorax -12.0961 -0.420721 6.04217
lowerneck -11.7066 -4.10815 -3.54058
upperneck 18.5707 -4.90207 -0.709711
head 7.72927 -2.6811 -0.147532
rclavicle -5.34731e-014 -2.54444e-014
rhumerus -22.3345 24.508 -97.7868
rradius 42.6755
rwrist -82.6894
rhand -19.1281 9.33416
rfingers 7.12502
rthumb 7.18154 -20.524
lclavicle -5.34731e-014 -2.54444e-014
lhumerus -0.324325 27.5533 49.0567
lradius 67.8505
lwrist 43.1065
lhand 0.880133 18.1265
lfingers 7.12502
lthumb 26.4331 46.3034
rfemur -32.7873 13.1929 17.5475
rtibia 72.8304
rfoot -33.0571 -4.66226
rtoes 5.1236
lfemur -17.6345 -2.28384 0.710423
ltibia 28.1546
lfoot -3.9758 20.7957
ltoes -7.43686
2650
root -1.15029 14.2188 4.05241 -366.905 -34.209 370.319
lowerback 18.4614 -0.490701 -6.6417
upperback -1.3232 -2.03253 0.989019
thorax -11.6292 -0.497313 5.45877
lowerneck -11.916 -3.93845 -3.09695
upperneck 18.4738 -4.72929 -0.782881
head 7.71737 -2.57265 -0.228844
rclavicle -2.15681e-014 -3.81667e-014
rhumerus -22.2 25.5731 -97.9203
rradius 43.5709
rwrist -83.0412
rhand -19.1208 9.10936
rfingers 7.12502
rthumb 7.18859 -20.7485
lclavicle -2.15681e-014 -3.81667e-014
lhumerus 0.0539508 27.0493 48.8523
lradius 68.523
lwrist 40.9417
lhand 2.01359 18.6937
lfingers 7.12502
lthumb 27.5176 46.7028
rfemur -32.5318 12.8913 17.4356
rtibia 72.7138
rfoot -32.9161 -4.70912
rtoes 4.95532
lfemur -17.9717 -1.07824 0.699981
ltibia 29.0251
lfoot -3.16656 19.6871
ltoes -10.4519
2651
root -1.09118 14.2165 4.07764 -366.823 -34.3002 369.978
lowerback 18.8573 -0.539943 -7.03908
upperback -1.35313 -2.15988 1.48508
thorax -11.843 -0.499081 6.29974
lowerneck -11.8342 -3.78367 -3.54932
upperneck 18.3405 -4.40009 -0.931449
head 7.66431 -2.46082 -0.166551
rclavicle -2.69353e-014 2.70347e-014
rhumerus -23.099 27.94 -97.7207
rradius 45.2502
rwrist -83.833
rhand -19.2985 8.86416
rfingers 7.12502
rthumb 7.01697 -20.9995
lclavicle -2.69353e-014 2.70347e-014
lhumerus -0.553117 26.6866 48.7469
lradius 69.188
lwrist 39.8139
lhand 2.47456 18.6545
lfingers 7.12502
lthumb 27.9584 46.5926
rfemur -32.4881 12.5857 17.4162
rtibia 72.6895
rfoot -33.051 -4.10781
rtoes 3.92657
lfemur -18.5439 0.0734096 0.820251
ltibia 30.0541
lfoot -2.23088 18.6468
ltoes -13.958
2652
root -1.02692 14.2028 4.12799 -366.642 -34.2737 369.413
lowerback 18.8334 -0.50526 -6.17181
upperback -1.24114 -1.93003 1.32054
thorax -11.7652 -0.4614 5.54716
lowerneck -11.8967 -3.76142 -2.73657
upperneck 18.5286 -4.46902 -1.23811
head 7.70871 -2.46811 -0.410009
rclavicle 1.5704e-014 -1.43125e-014
rhumerus -23.4004 28.6965 -97.6852
rradius 46.5047
rwrist -84.2343
rhand -19.1242 9.17383
rfingers 7.12502
rthumb 7.18525 -20.6842
lclavicle 1.5704e-014 -1.43125e-014
lhumerus -0.0129304 25.0284 48.744
lradius 69.7979
lwrist 39.9501
lhand 2.19703 18.3836
lfingers 7.12502
lthumb 27.693 46.3647
rfemur -32.3139 12.1554 17.5182
rtibia 72.6832
rfoot -33.1969 -3.02337
rtoes 4.85052
lfemur -19.2841 2.02696 1.06579
ltibia 31.2512
lfoot -0.972329 16.7124
ltoes -18.8207
2653
root -0.972336 14.2043 4.16827 -366.53 -34.2563 369.213
lowerback 18.8134 -0.524949 -6.35288
upperback -1.19982 -1.96182 1.60399
thorax -11.6871 -0.458265 5.97697
lowerneck -11.8921 -3.64469 -2.95587
upperneck 18.4162 -4.22834 -1.41788
head 7.67124 -2.38487 -0.40681
rclavicle -6.7885e-014 -3.18055e-015
rhumerus -24.0456 30.6866 -97.3937
rradius 48.0537
rwrist -84.7992
rhand -18.7394 9.01192
rfingers 7.12502
rthumb 7.5567 -20.8331
lclavicle -6.7885e-014 -3.18055e-015
lhumerus -0.496828 24.2246 48.9154
lradius 71.1352
lwrist 39.9762
lhand 1.24347 19.1396
lfingers 7.12502
lthumb 26.7809 47.2638
rfemur -32.2908 11.7394 17.3022
rtibia 72.6269
rfoot -32.9418 -3.62864
rtoes 2.05856
lfemur -19.9115 2.68253 1.01875
ltibia 32.2143
lfoot -0.782785 15.8789
ltoes -18.87
2654
root -0.91372 14.1986 4.21448 -366.714 -34.0933 369.346
lowerback 18.7463 -0.505997 -6.44344
upperback -1.03503 -1.96615 1.45405
thorax -11.4624 -0.476324 5.85282
lowerneck -11.9284 -3.61466 -2.64652
upperneck 18.3452 -4.23549 -1.47008
head 7.64489 -2.37059 -0.474573
rclavicle 4.59193e-014 4.6118e-014
rhumerus -24.6449 31.9361 -97.3748
rradius 49.651
rwrist -84.9692
rhand -18.2939 8.83705
rfingers 7.12502
rthumb 7.98664 -20.9921
lclavicle 4.59193e-014 4.6118e-014
lhumerus -0.051059 23.2249 48.9822
lradius 71.7307
lwrist 38.8304
lhand 1.15275 18.7841
lfingers 7.12502
lthumb 26.694 46.9215
rfemur -32.1241 11.2607 16.7525
rtibia 72.6557
rfoot -33.1177 -3.10984
rtoes 2.0209
lfemur -20.5816 3.90062 0.607647
ltibia 33.2457
lfoot -0.478765 14.4893
ltoes -20.8632
2655
root -0.852785 14.1908 4.25936 -366.665 -34.0159 369.067
lowerback 18.9205 -0.340853 -6.30428
upperback -1.0024 -1.71864 1.51852
thorax -11.5631 -0.362264 5.78399
lowerneck -12.0474 -3.7122 -2.42023
upperneck 18.5525 -4.35046 -1.7776
head 7.72215 -2.44072 -0.629535
rclavicle 1.04958e-013 3.18055e-015
rhumerus -25.1549 32.6582 -96.9724
rradius 51.1824
rwrist -85.6314
rhand -18.2356 8.86246
rfingers 7.12502
rthumb 8.04292 -20.9645
lclavicle 1.04958e-013 3.18055e-015
lhumerus 0.0154711 21.5592 49.2298
lradius 72.75
lwrist 38.512
lhand 0.320927 18.5446
lfingers 7.12502
lthumb 25.8977 46.8008
rfemur -31.9467 10.893 16.5959
rtibia 72.6628
rfoot -33.3124 -2.55486
rtoes 1.21367
lfemur -21.2752 5.19611 0.595738
ltibia 34.4916
lfoot -0.635974 13.2287
ltoes -22.8502
2656
root -0.788954 14.1879 4.30396 -366.592 -33.968 368.944
lowerback 18.9686 -0.354462 -6.35382
upperback -1.01631 -1.73445 1.66517
thorax -11.5987 -0.3587 5.98467
lowerneck -11.6429 -3.58327 -2.91022
upperneck 18.1534 -4.15213 -1.46215
head 7.53763 -2.34641 -0.411776
rclavicle -4.77083e-014 -3.65764e-014
rhumerus -26.0098 33.867 -96.7539
rradius 52.9546
rwrist -86.026
rhand -17.8943 8.37542
rfingers 7.12502
rthumb 8.37233 -21.4386
lclavicle -4.77083e-014 -3.65764e-014
lhumerus -0.0474461 20.7229 49.1963
lradius 73.752
lwrist 38.1661
lhand 0.00139685 18.9303
lfingers 7.12502
lthumb 25.5917 47.2309
rfemur -31.9992 10.557 16.2928
rtibia 72.6765
rfoot -33.2526 -3.01592
rtoes -1.80491
lfemur -22.0128 5.82036 0.417552
ltibia 35.6442
lfoot -1.05602 12.6841
ltoes -21.8389
2657
root -0.730575 14.1768 4.34202 -366.544 -34.2108 368.702
lowerback 19.2269 -0.14439 -6.54913
upperback -1.02763 -1.50118 1.80739
thorax -11.7879 -0.221683 6.20447
lowerneck -11.8974 -3.56441 -2.59323
upperneck 18.4483 -4.12404 -1.74396
head 7.66572 -2.34086 -0.562392
rclavicle 3.17062e-014 1.11319e-014
rhumerus -26.912 34.9199 -96.6329
rradius 54.8253
rwrist -86.2356
rhand -18.4231 8.96531
rfingers 7.12502
rthumb 7.86199 -20.8685
lclavicle 3.17062e-014 1.11319e-014
lhumerus -0.0178127 19.6073 49.3019
lradius 74.6628
lwrist 37.6588
lhand -0.839886 19.1739
lfingers 7.12502
lthumb 24.7857 47.5878
rfemur -32.0113 10.5868 16.1769
rtibia 72.7306
rfoot -33.2279 -2.58296
rtoes -1.09322
lfemur -22.5103 6.93406 0.456881
ltibia 36.6708
lfoot -0.531675 11.7456
ltoes -25.5831
